# xmcd
#
# Track frame offsets:
#	150
#	30657
#	57587
#	86795
#	114312
#	138027
#	164802
#	196162
#	231182
#	254827
#	280877
#	304957
#
# Disc length: 4617 seconds
# Revision: 14
# Processed by: cddbd v1.5.2PL0 Copyright (c) Steve Scherf et al.
# Submitted via: dBpowerAMP V12.0
#
DISCID=b012070c
DTITLE=Various / G3: Live in Concert
DYEAR=1997
DGENRE=Rock
TTITLE0=Joe Satriani / Cool Nº 9
TTITLE1=Joe Satriani / Flying in a Blue Dream
TTITLE2=Joe Satriani / Summer Song
TTITLE3=Eric Johnson / Zap
TTITLE4=Eric Johnson / Manhattan
TTITLE5=Eric Johnson / Camel's Night Out
TTITLE6=Steve Vai / Answers
TTITLE7=Steve Vai / For the Love of God
TTITLE8=Steve Vai / The Attitude Song
TTITLE9=Joe Satriani, Eric Johnson, Steve Vai / Going Down
TTITLE10=Joe Satriani, Eric Johnson, Steve Vai / My Guitar Wants to Kill Your Mama
TTITLE11=Joe Satriani, Eric Johnson, Steve Vai / Red House
EXTD=
EXTT0=
EXTT1=
EXTT2=
EXTT3=
EXTT4=
EXTT5=
EXTT6=
EXTT7=
EXTT8=
EXTT9=
EXTT10=
EXTT11=
PLAYORDER=
.
